<svg xmlns="http://www.w3.org/2000/svg" viewBox="0 0 174.89 104.29"><defs><style>.cls-1{fill:#e83828;}.cls-2{fill:#fff;}</style></defs><g id="圖層_2" data-name="圖層 2"><g id="圖層_1-2" data-name="圖層 1"><path class="cls-1" d="M132,14a6,6,0,0,0,.81-2.77q0-2.78-3.24-2.77A9,9,0,0,0,124.77,10,10.81,10.81,0,0,0,121,14L95.32,58.32a12.09,12.09,0,0,1-3.93,3.93,9.16,9.16,0,0,1-4.85,1.61H58.81c-2.16,0-3.24-.92-3.24-2.78a5.48,5.48,0,0,1,.9-2.77L82,14a5.29,5.29,0,0,0,1-2.77q0-2.76-3.24-2.76A9.13,9.13,0,0,0,74.86,10,12,12,0,0,0,70.93,14L45.4,58.32a11.84,11.84,0,0,1-3.92,3.92,9.09,9.09,0,0,1-4.85,1.62H8.9q-3.23,0-3.23-2.77a5.4,5.4,0,0,1,.92-2.77L35.36,8.42a12,12,0,0,1,3.92-3.93,9.09,9.09,0,0,1,4.85-1.62H171.66c2.15,0,3.23.93,3.23,2.77A5.43,5.43,0,0,1,174,8.42l-53.6,92.87c-1.15,2-2.35,3-3.58,3a2,2,0,0,1-1.73-1.15l-15.37-26A6.69,6.69,0,0,1,99,73.91a9.85,9.85,0,0,1,1.39-5.2Z"/><path class="cls-2" d="M111.28,101.74a2.18,2.18,0,0,1-1.87-1.23l-15.36-26a6.82,6.82,0,0,1-.72-3.31,10.12,10.12,0,0,1,1.41-5.28l31.65-54.75a5.82,5.82,0,0,0,.79-2.69c0-1.76-1-2.62-3.08-2.62a9,9,0,0,0-4.76,1.6,10.8,10.8,0,0,0-3.75,3.87L90,55.69a12.2,12.2,0,0,1-4,4A9.32,9.32,0,0,1,81,61.31H53.3c-2.26,0-3.4-1-3.4-2.94a5.64,5.64,0,0,1,.93-2.86L76.36,11.16a5.18,5.18,0,0,0,.92-2.69c0-1.75-1-2.61-3.08-2.61a9,9,0,0,0-4.76,1.6,11.85,11.85,0,0,0-3.88,3.87L40,55.69a12.2,12.2,0,0,1-4,4,9.26,9.26,0,0,1-4.93,1.64H3.39c-2.25,0-3.39-1-3.39-2.93a5.59,5.59,0,0,1,1-2.86L29.71,5.62a12.2,12.2,0,0,1,4-4A9.26,9.26,0,0,1,38.62,0H166.15c2.25,0,3.39,1,3.39,2.93a5.61,5.61,0,0,1-.94,2.86L115,98.66C113.82,100.7,112.57,101.74,111.28,101.74ZM124.1,5.54c2.26,0,3.4,1,3.4,2.94a6.13,6.13,0,0,1-.83,2.85h0L95,66.08a9.76,9.76,0,0,0-1.37,5.12,6.53,6.53,0,0,0,.68,3.15l15.36,26a1.83,1.83,0,0,0,1.59,1.08c1.17,0,2.32-1,3.44-2.92l53.6-92.88a5.2,5.2,0,0,0,.9-2.69c0-1.75-1-2.61-3.07-2.61H38.62a9,9,0,0,0-4.76,1.59A11.88,11.88,0,0,0,30,5.79L1.22,55.69a5.23,5.23,0,0,0-.9,2.69c0,1.76,1,2.61,3.07,2.61H31.12a9,9,0,0,0,4.76-1.59,11.88,11.88,0,0,0,3.88-3.88L65.28,11.17a12.2,12.2,0,0,1,4-4A9.34,9.34,0,0,1,74.2,5.54c2.25,0,3.4,1,3.4,2.93a5.54,5.54,0,0,1-1,2.86L51.1,55.67a5.44,5.44,0,0,0-.88,2.7c0,1.76,1,2.62,3.08,2.62H81a9,9,0,0,0,4.76-1.59,11.85,11.85,0,0,0,3.88-3.87l25.64-44.35a11.12,11.12,0,0,1,3.86-4A9.28,9.28,0,0,1,124.1,5.54Z"/></g></g></svg>